<svg width="30" height="30" viewBox="0 0 30 30" fill="none" xmlns="http://www.w3.org/2000/svg">
<path fill-rule="evenodd" clip-rule="evenodd" d="M21.0651 2.22562C18.7854 2.22562 16.654 3.08419 15 4.65597C13.346 3.08419 11.2146 2.22562 8.9349 2.22562C4.00816 2.22562 0 6.33005 0 11.3751C0 14.3 2.49275 17.945 7.40912 22.2088C11.0036 25.3262 14.6487 27.6593 14.6851 27.6826C14.7811 27.7438 14.8905 27.7744 15 27.7744C15.1095 27.7744 15.2189 27.7437 15.315 27.6825C15.3514 27.6593 18.9964 25.3261 22.5909 22.2087C27.5072 17.9449 30 14.2999 30 11.3751C30 6.33005 25.9918 2.22562 21.0651 2.22562ZM21.8332 21.3147C18.9103 23.8509 15.9516 25.8596 15 26.4886C14.0498 25.8608 11.0989 23.8576 8.17688 21.3234C3.59414 17.349 1.17188 13.9089 1.17188 11.3751C1.17188 6.97616 4.65439 3.39749 8.9349 3.39749C11.0868 3.39749 13.0879 4.28191 14.5693 5.88778C14.6803 6.00802 14.8364 6.0764 15 6.0764C15.1636 6.0764 15.3197 6.00802 15.4307 5.88778C16.9122 4.28196 18.9132 3.39755 21.0651 3.39755C25.3456 3.39749 28.8281 6.97616 28.8281 11.3751C28.8281 13.9069 26.4093 17.3439 21.8332 21.3147ZM20.3542 5.46719L20.3322 5.471C20.0136 5.5276 19.8012 5.83176 19.8578 6.1504C19.9082 6.43434 20.1553 6.63391 20.434 6.63391C20.468 6.63391 20.5025 6.63093 20.5371 6.62477L20.5488 6.62278C20.8679 6.56905 21.083 6.26682 21.0293 5.94772C20.9756 5.6285 20.673 5.41364 20.3542 5.46719ZM22.8486 5.6254C23.9847 5.97374 25.0065 6.70985 25.726 7.69815C26.4661 8.71493 26.8573 9.9267 26.8573 11.2025C26.8574 11.5262 26.5951 11.7885 26.2715 11.7885C25.9478 11.7885 25.6855 11.5262 25.6855 11.2026C25.6855 9.15268 24.3777 7.31999 22.5051 6.74577C22.1957 6.6509 22.0218 6.32319 22.1167 6.01381C22.2116 5.70444 22.5392 5.53042 22.8486 5.6254Z" fill="#232323"/>
</svg>
