<svg width="30" height="30" viewBox="0 0 30 30" fill="none" xmlns="http://www.w3.org/2000/svg">
<g clip-path="url(#clip0)">
<g clip-path="url(#clip1)">
<path d="M3.85193 8.81121H26.1481C27.9412 8.81121 29.4 7.3524 29.4 5.55928C29.4 3.76616 27.9412 2.30734 26.1481 2.30734H3.85187C2.05881 2.30734 0.599993 3.76616 0.599993 5.55928C0.599993 7.3524 2.05881 8.81121 3.85193 8.81121ZM26.1481 3.45475C27.3085 3.45475 28.2526 4.39884 28.2526 5.55928C28.2526 6.71971 27.3085 7.6638 26.1481 7.6638H3.85187C2.69143 7.6638 1.74734 6.71971 1.74734 5.55928C1.74734 4.39884 2.69149 3.45475 3.85193 3.45475H26.1481Z" fill="#232323"/>
<path d="M3.85193 18.2519H26.1481C27.9412 18.2519 29.4 16.7931 29.4 15C29.4 13.2069 27.9412 11.7481 26.1481 11.7481H3.85187C2.05881 11.7481 0.599993 13.2069 0.599993 15C0.599993 16.7931 2.05881 18.2519 3.85193 18.2519ZM26.1481 12.8955C27.3085 12.8955 28.2526 13.8396 28.2526 15C28.2526 16.1604 27.3085 17.1045 26.1481 17.1045H3.85187C2.69149 17.1045 1.7474 16.1604 1.7474 15C1.7474 13.8396 2.69149 12.8955 3.85193 12.8955H26.1481Z" fill="#232323"/>
<path d="M3.85193 27.6927H26.1481C27.9412 27.6927 29.4 26.2338 29.4 24.4407C29.4 22.6476 27.9412 21.1888 26.1481 21.1888H3.85187C2.05875 21.1888 0.599934 22.6476 0.599934 24.4407C0.599993 26.2338 2.05881 27.6927 3.85193 27.6927ZM26.1481 22.3362C27.3085 22.3362 28.2526 23.2803 28.2526 24.4407C28.2526 25.6012 27.3085 26.5453 26.1481 26.5453H3.85187C2.69143 26.5453 1.74734 25.6012 1.74734 24.4407C1.74734 23.2803 2.69143 22.3362 3.85187 22.3362H26.1481Z" fill="#232323"/>
<path d="M16.1717 6.13301H26.0811C26.398 6.13301 26.6548 5.87616 26.6548 5.5593C26.6548 5.24244 26.398 4.9856 26.0811 4.9856H16.1717C15.8549 4.9856 15.598 5.24244 15.598 5.5593C15.598 5.87616 15.8549 6.13301 16.1717 6.13301Z" fill="#232323"/>
<path d="M13.4848 6.13301H13.4935C13.8104 6.13301 14.0672 5.87616 14.0672 5.5593C14.0672 5.24244 13.8104 4.9856 13.4935 4.9856H13.4848C13.1679 4.9856 12.9111 5.24244 12.9111 5.5593C12.9111 5.87616 13.1679 6.13301 13.4848 6.13301Z" fill="#232323"/>
</g>
</g>
<defs>
<clipPath id="clip0">
<rect width="30" height="30" fill="white"/>
</clipPath>
<clipPath id="clip1">
<rect width="28.8" height="28.8" fill="white" transform="matrix(-1 0 0 1 29.4 0.600006)"/>
</clipPath>
</defs>
</svg>
