<svg width="30" height="30" viewBox="0 0 30 30" fill="none" xmlns="http://www.w3.org/2000/svg">
<g clip-path="url(#clip0)">
<path fill-rule="evenodd" clip-rule="evenodd" d="M21.7339 17.5911C21.6243 17.4813 21.475 17.4195 21.3196 17.4195L21.315 17.4196C21.2814 17.4198 21.0752 17.4213 20.9054 17.5911L20.4913 18.0052L19.145 16.6591C22.1159 12.4946 21.6641 6.74992 18.0054 3.09147C13.8842 -1.02978 7.21319 -1.03047 3.09148 3.09147C-1.02976 7.21249 -1.03045 13.8837 3.09148 18.0054C6.741 21.6552 12.4834 22.1235 16.6589 19.145L18.0052 20.4913L17.5911 20.9053C17.3625 21.134 17.3623 21.5052 17.5911 21.7341L24.9987 29.141C26.1433 30.2863 27.9961 30.287 29.141 29.1412C30.2863 27.9968 30.2868 26.1438 29.141 24.9989L21.7339 17.5911ZM18.8337 19.6627L17.5792 18.4082C17.725 18.2775 17.8676 18.1434 18.0054 18.0054C18.1434 17.8676 18.2776 17.725 18.4083 17.5795L19.6628 18.834L18.8337 19.6627ZM3.92003 17.1769C0.256552 13.5136 0.256094 7.58373 3.92003 3.92002C7.58329 0.256537 13.5132 0.256079 17.1769 3.92002C20.8321 7.57503 20.8507 13.5035 17.1769 17.1769C13.4617 20.8925 7.53339 20.7904 3.92003 17.1769ZM21.3196 18.834L22.9765 20.4911L20.4911 22.9765L18.834 21.3196L21.3196 18.834ZM28.3124 28.3126C27.6258 29 26.5146 29.0002 25.8275 28.3126L21.3196 23.805L23.8051 21.3196L28.3127 25.8277C28.9998 26.5141 29.0005 27.6253 28.3124 28.3126ZM5.31694 10.5899C4.99353 10.5899 4.731 10.8522 4.731 11.1756C4.731 11.499 4.99353 11.7616 5.31694 11.7616C5.64035 11.7616 5.90288 11.499 5.90288 11.1756C5.90288 10.8522 5.64035 10.5899 5.31694 10.5899ZM6.40551 6.40549C7.51101 5.29931 8.98226 4.69002 10.5483 4.69002C10.8719 4.69002 11.1342 4.95232 11.1342 5.27596C11.1342 5.5996 10.8719 5.8619 10.5483 5.8619C9.29537 5.8619 8.11846 6.34919 7.23406 7.23382C6.72137 7.74674 6.34417 8.3519 6.11323 9.03283C6.00932 9.33861 5.67698 9.50341 5.37005 9.39927C5.06358 9.29535 4.8997 8.96256 5.00361 8.65632C5.29292 7.8035 5.76464 7.04636 6.40551 6.40549Z" fill="#232323"/>
</g>
<defs>
<clipPath id="clip0">
<rect width="30" height="30" fill="white"/>
</clipPath>
</defs>
</svg>
